<svg xmlns:xlink="http://www.w3.org/1999/xlink" width="24" height="24" viewBox="0 0 24 24" version="1.1" xmlns="http://www.w3.org/2000/svg" class="sc-hIPkLu sZNIM"><path d="M6.5,14 C5.67157288,14 5,13.3284271 5,12.5 C5,11.6715729 5.67157288,11 6.5,11 C7.32842712,11 8,11.6715729 8,12.5 C8,13.3284271 7.32842712,14 6.5,14 Z M12.5,14 C11.6715729,14 11,13.3284271 11,12.5 C11,11.6715729 11.6715729,11 12.5,11 C13.3284271,11 14,11.6715729 14,12.5 C14,13.3284271 13.3284271,14 12.5,14 Z M18.5,14 C17.6715729,14 17,13.3284271 17,12.5 C17,11.6715729 17.6715729,11 18.5,11 C19.3284271,11 20,11.6715729 20,12.5 C20,13.3284271 19.3284271,14 18.5,14 Z" fill="#2196F3"></path></svg>