<svg xmlns:xlink="http://www.w3.org/1999/xlink" width="24" height="24" viewBox="0 0 24 24" version="1.1" xmlns="http://www.w3.org/2000/svg" class="sc-hIPkLu sZNIM"><path d="M9,6 L9,13 L7.20376823,13 L12,18.4814077 L16.7962318,13 L15,13 L15,6 L9,6 Z M7,11 L7,5 C7,4.44771525 7.44771525,4 8,4 L16,4 C16.5522847,4 17,4.44771525 17,5 L17,11 L19,11 C19.8591588,11 20.3183367,12.0119217 19.7525767,12.6585046 L12.7525767,20.6585046 C12.3541654,21.1138318 11.6458346,21.1138318 11.2474233,20.6585046 L4.24742331,12.6585046 C3.68166327,12.0119217 4.14084119,11 5,11 L7,11 Z" fill="#2196F3"></path></svg>