<svg id="Capa_1" data-name="Capa 1" xmlns="http://www.w3.org/2000/svg" viewBox="0 0 389.36 343.66"><defs><style>.cls-1{fill:#dea078;}.cls-2{fill:#d29973;}.cls-3{fill:#eaa87d;}.cls-4{fill:#fab589;}.cls-12,.cls-5{fill:#fff;}.cls-5{stroke:#bcbec0;stroke-miterlimit:10;stroke-width:2px;}.cls-6{fill:#699f5b;}.cls-7{fill:#dcddde;}.cls-8{fill:#7cb96a;}.cls-9{fill:#a6bc87;}.cls-10{fill:#d09876;}.cls-11{fill:#324345;}.cls-13{fill:#dea17d;}.cls-14{fill:#2c231a;}.cls-15{fill:#fcdb2c;}.cls-16{fill:#c74e4a;}.cls-17{fill:#59b7b6;}.cls-18{fill:#9fcc3f;}.cls-19{fill:#1c0c1b;}</style></defs><path class="cls-1" d="M127.89,152.3s-24.38-10.25-40.11,11.78S72.86,276.29,72.86,276.29l37.28,28.5s6.71-19.6,12.52-39.41c3.65-12.47,16.16-31.16,14.15-51.16s6.12-27.87-10.57-37.44c-6-3.44-9.31,7.85-9.34,4C116.86,175.29,123.06,162.5,127.89,152.3Z" transform="translate(-17.92 -40.18)"/><path class="cls-2" d="M144.42,198.82c-5.72-6.46-3.46-11.59-3.2-13.24l4.06-15.77a9.12,9.12,0,0,1,11.1-6.57l2,.51a9.13,9.13,0,0,1,6.58,11.1l-7.6,30.23S147.72,202.56,144.42,198.82Z" transform="translate(-17.92 -40.18)"/><path class="cls-2" d="M162.24,181.68a9.13,9.13,0,0,1-12.61,2.75L130.22,172a9.13,9.13,0,0,1-2.75-12.61l1.12-1.74a9.13,9.13,0,0,1,12.61-2.75l19.4,12.46a9.12,9.12,0,0,1,2.75,12.61Z" transform="translate(-17.92 -40.18)"/><path class="cls-2" d="M143.78,158.83a9.12,9.12,0,0,1-1.27,12.84l-27.82,22.77a9.12,9.12,0,0,1-12.84-1.27l-1.31-1.59a9.14,9.14,0,0,1,1.28-12.85L129.63,156a9.11,9.11,0,0,1,12.84,1.27Z" transform="translate(-17.92 -40.18)"/><path class="cls-1" d="M170.56,192c-5.95-1.54-9.1-3.7-11.35-11.17l-5.87-21.43a9.71,9.71,0,0,1,6.77-11.94l2.11-.59a9.7,9.7,0,0,1,11.94,6.77l10.17,36.57S176.5,193.58,170.56,192Z" transform="translate(-17.92 -40.18)"/><path class="cls-1" d="M173.33,161.9a10.61,10.61,0,0,1-13.1,7.3l-25.79-7.34a10.61,10.61,0,0,1-7.3-13.11l.66-2.3a10.59,10.59,0,0,1,13.1-7.3l25.79,7.33a10.62,10.62,0,0,1,7.3,13.11Z" transform="translate(-17.92 -40.18)"/><path class="cls-1" d="M144.26,146.76a10.6,10.6,0,0,1-1.48,14.92l-33,27.61a10.61,10.61,0,0,1-14.93-1.48L93.37,186A10.6,10.6,0,0,1,94.85,171l33-27.61a10.61,10.61,0,0,1,14.93,1.48Z" transform="translate(-17.92 -40.18)"/><path class="cls-3" d="M201.82,154.91c-5.44,4.16-12.18,5.12-17.46,2L164,144.71a11.15,11.15,0,0,1-3.84-15.29l1.29-2.16a11.14,11.14,0,0,1,15.28-3.84L211,143.58S207.27,150.75,201.82,154.91Z" transform="translate(-17.92 -40.18)"/><path class="cls-3" d="M182,136.16a11.15,11.15,0,0,1-11.72,10.54l-28.13-1.49a11.15,11.15,0,0,1-10.54-11.72l.13-2.52a11.15,11.15,0,0,1,11.72-10.54l28.13,1.5a11.14,11.14,0,0,1,10.54,11.71Z" transform="translate(-17.92 -40.18)"/><path class="cls-3" d="M152.73,127.22a11.15,11.15,0,0,1-2.51,15.56L104,175.15a11.14,11.14,0,0,1-15.56-2.51l-1.48-2A11.14,11.14,0,0,1,89.45,155l46.25-32.37a11.14,11.14,0,0,1,15.56,2.51Z" transform="translate(-17.92 -40.18)"/><path class="cls-4" d="M191.61,115.45c-3.73,6.88-10.32,11-17.3,10.19l-26.89-3.21a12.72,12.72,0,0,1-11.13-14.15l.34-2.86a12.72,12.72,0,0,1,14.15-11.13l45.09,5.08S195.35,108.57,191.61,115.45Z" transform="translate(-17.92 -40.18)"/><path class="cls-4" d="M162.16,105.15a12.73,12.73,0,0,1-7.32,16.45l-30,11.56a12.73,12.73,0,0,1-16.45-7.32l-1-2.68a12.74,12.74,0,0,1,7.32-16.46l30-11.55a12.74,12.74,0,0,1,16.46,7.31Z" transform="translate(-17.92 -40.18)"/><path class="cls-4" d="M127.5,109.45a12.72,12.72,0,0,1,4.63,17.4L99,182.17a12.75,12.75,0,0,1-17.41,4.63l-2.48-1.44A12.73,12.73,0,0,1,74.45,168l33.16-55.32A12.74,12.74,0,0,1,125,108Z" transform="translate(-17.92 -40.18)"/><path class="cls-4" d="M116.76,152.49s-24.38-10.25-40.1,11.78S61.74,276.48,61.74,276.48L47.52,319.39l52,17.82,10.62-32.42s6.09-22.34,11.9-42.15c3.65-12.47,13.29-21.13,8.93-46.37,0,0-9.3-15.12-17.28-19.84-6-3.52-21,10.45-21.08,6.58C92.56,197.54,111.93,162.69,116.76,152.49Z" transform="translate(-17.92 -40.18)"/><rect class="cls-5" x="105.43" y="57.87" width="187.81" height="230.97" transform="translate(-48.68 3.4) rotate(-11.59)"/><rect class="cls-6" x="186.01" y="68.08" width="72.75" height="29.32" transform="translate(-30.01 6.18) rotate(-11.59)"/><rect class="cls-7" x="191.48" y="107.1" width="72.75" height="4.67" transform="translate(-35.26 7.83) rotate(-11.59)"/><rect class="cls-7" x="193.26" y="115.79" width="72.75" height="4.67" transform="translate(-36.97 8.36) rotate(-11.59)"/><rect class="cls-7" x="195.05" y="124.47" width="72.75" height="4.67" transform="matrix(0.98, -0.2, 0.2, 0.98, -38.67, 8.9)"/><rect class="cls-7" x="196.83" y="133.15" width="72.75" height="4.66" transform="translate(-40.38 9.43) rotate(-11.59)"/><rect class="cls-7" x="198.61" y="141.84" width="72.75" height="4.67" transform="translate(-42.09 9.97) rotate(-11.59)"/><rect class="cls-8" x="201.22" y="153.31" width="72.75" height="7.15" transform="translate(-44.59 10.75) rotate(-11.59)"/><rect class="cls-7" x="203.24" y="164.45" width="72.75" height="4.67" transform="translate(-46.54 11.37) rotate(-11.59)"/><rect class="cls-7" x="205.03" y="173.13" width="72.75" height="4.66" transform="translate(-48.25 11.9) rotate(-11.59)"/><rect class="cls-7" x="206.81" y="181.81" width="72.75" height="4.67" transform="matrix(0.98, -0.2, 0.2, 0.98, -49.96, 12.43)"/><rect class="cls-7" x="208.83" y="192.89" width="48.93" height="4.67" transform="translate(-52.38 10.66) rotate(-11.59)"/><rect class="cls-8" x="210.4" y="198.12" width="72.75" height="7.05" transform="translate(-53.39 13.5) rotate(-11.59)"/><rect class="cls-7" x="212.17" y="207.98" width="72.75" height="4.67" transform="translate(-55.11 14.05) rotate(-11.59)"/><rect class="cls-7" x="213.95" y="216.67" width="72.75" height="4.67" transform="translate(-56.81 14.58) rotate(-11.59)"/><rect class="cls-7" x="215.85" y="226.49" width="61.39" height="4.67" transform="translate(-58.87 14.03) rotate(-11.59)"/><rect class="cls-9" x="117.18" y="83.54" width="64.82" height="79.7" transform="translate(-39.66 -7.6) rotate(-11.59)"/><rect class="cls-10" x="144.77" y="139.14" width="17.68" height="12.28" transform="translate(-43.97 -6.37) rotate(-11.59)"/><path class="cls-11" d="M176.59,158.53l-1.83-8.91a7.85,7.85,0,0,0-9.27-6.12l-3.09.63-7.75,6.16-9.59-2.6-3.06.63a7.85,7.85,0,0,0-6.12,9.27l1.83,8.91Z" transform="translate(-17.92 -40.18)"/><polygon class="cls-12" points="127.48 111.17 127.17 107.5 136.73 110.12 127.48 111.17"/><polygon class="cls-12" points="145.64 107.46 144.48 103.95 136.73 110.12 145.64 107.46"/><path class="cls-13" d="M161.34,106.39c-1.42-7-8.84-8.92-8.84-8.92a24.14,24.14,0,0,0-16.68,3.42s-6,4.73-4.62,11.68,2.37,16.48,4.37,21.3,6.43,7.77,11.93,9.29a11.63,11.63,0,0,0,10.9-2.24c4.46-3.55,7.38-8,7.31-13.22S162.76,113.33,161.34,106.39Z" transform="translate(-17.92 -40.18)"/><path class="cls-14" d="M133.74,101.43s-3.85,3.68-3.81,7.13S133.31,125,133.31,125a1.38,1.38,0,0,1,2,.38c.79,1.17-1.28-12.78-.83-16s6.49-3.12,5.32-5.55S133.74,101.43,133.74,101.43Z" transform="translate(-17.92 -40.18)"/><path class="cls-14" d="M154.61,97.15s5,1.87,6.31,5,3.37,16.47,3.37,16.47a1.39,1.39,0,0,0-1.66,1.12c-.27,1.39-3.85-12.25-5.53-15s-7.19-.31-7.07-3S154.61,97.15,154.61,97.15Z" transform="translate(-17.92 -40.18)"/><path class="cls-14" d="M154.79,95.55c-3.62.21-6.89-.28-10.61-.32-6.44-.06-12.94,2.91-12.78,9.07,0,1.56,1.91,1,1.91,1a22.88,22.88,0,0,1,10.17,4.34A5,5,0,0,0,140,105.8l.82.17a22.27,22.27,0,0,1,6,3.27,4.88,4.88,0,0,0-1.59-2.75,15.25,15.25,0,0,0,2.55-.17h0c6.81-1.25,9.87-4.15,11.44-5.79,4.26-4.45,5-6.28,4.74-7.69C162.53,93.84,156.21,95.47,154.79,95.55Z" transform="translate(-17.92 -40.18)"/><path class="cls-13" d="M162.42,121s.11-2.5,1.87-2.33,2,3.29,2,4.72a5.09,5.09,0,0,1-.66,2.4Z" transform="translate(-17.92 -40.18)"/><path class="cls-13" d="M135.91,126.43s-1.08-2.25-2.65-1.4-.53,3.81.07,5.11a5.12,5.12,0,0,0,1.55,2Z" transform="translate(-17.92 -40.18)"/><rect class="cls-15" x="129.87" y="180.57" width="13.44" height="14.59" transform="translate(-52.89 -8.89) rotate(-11.59)"/><rect class="cls-16" x="133.51" y="198.33" width="13.45" height="14.59" transform="translate(-56.39 -7.79) rotate(-11.6)"/><rect class="cls-17" x="137.16" y="216.1" width="13.44" height="14.59" transform="translate(-59.87 -6.71) rotate(-11.59)"/><rect class="cls-18" x="140.8" y="233.86" width="13.45" height="14.59" transform="translate(-63.36 -5.62) rotate(-11.59)"/><rect class="cls-7" x="144.5" y="173.55" width="53.78" height="2.62" transform="translate(-49.56 -2.17) rotate(-11.59)"/><rect class="cls-7" x="145.5" y="178.43" width="53.78" height="2.62" transform="translate(-50.51 -1.89) rotate(-11.59)"/><rect class="cls-7" x="146.73" y="185.51" width="31.95" height="2.62" transform="translate(-52.13 -3.69) rotate(-11.59)"/><rect class="cls-7" x="148.3" y="192.06" width="53.78" height="2.62" transform="translate(-53.19 -1.04) rotate(-11.59)"/><polygon class="cls-7" points="184.88 153.96 132.19 164.76 131.66 162.19 184.35 151.39 184.88 153.96"/><polygon class="cls-7" points="164.49 163.22 133.19 169.64 132.67 167.08 163.97 160.66 164.49 163.22"/><rect class="cls-7" x="151.94" y="209.83" width="53.78" height="2.62" transform="translate(-56.69 0.05) rotate(-11.59)"/><rect class="cls-7" x="152.94" y="214.71" width="53.78" height="2.62" transform="translate(-57.65 0.35) rotate(-11.59)"/><rect class="cls-7" x="154.17" y="221.78" width="31.95" height="2.62" transform="translate(-59.26 -1.46) rotate(-11.59)"/><rect class="cls-7" x="155.59" y="227.59" width="53.78" height="2.62" transform="translate(-60.2 1.16) rotate(-11.59)"/><rect class="cls-7" x="156.59" y="232.47" width="53.78" height="2.62" transform="translate(-61.15 1.45) rotate(-11.59)"/><rect class="cls-7" x="157.81" y="239.55" width="31.95" height="2.62" transform="translate(-62.77 -0.34) rotate(-11.59)"/><rect class="cls-8" x="162.82" y="244.81" width="99.87" height="6.08" transform="translate(-63.38 7.62) rotate(-11.59)"/><rect class="cls-7" x="132.3" y="254.58" width="168.32" height="4.56" transform="translate(-65.11 8.54) rotate(-11.59)"/><rect class="cls-7" x="134.33" y="264.5" width="168.32" height="4.56" transform="translate(-67.06 9.16) rotate(-11.59)"/><rect class="cls-7" x="137.17" y="282.35" width="89.4" height="4.56" transform="matrix(0.98, -0.2, 0.2, 0.98, -71.39, 2.16)"/><path class="cls-4" d="M166.11,165.48c-1.22,13-9.24,15.83-11.33,17.26l-21.67,11.84a13.82,13.82,0,0,1-18.78-5.47l-1.5-2.74a13.84,13.84,0,0,1,5.47-18.79l41.33-22.92S166.82,157.94,166.11,165.48Z" transform="translate(-17.92 -40.18)"/><path class="cls-4" d="M135.38,169.94c6.31,4.3,6.52,15.88,2.22,22.19,0,0-9.25,7.35-5.81,30.24,1.79,11.93-2.93,27.57-9,38.12-4,6.9-18.31-35.83-22.64-38.79l-2.59-1.76a13.82,13.82,0,0,1-3.64-19.22l19.7-28.9a13.84,13.84,0,0,1,19.22-3.64Z" transform="translate(-17.92 -40.18)"/><rect class="cls-12" x="73.18" y="258.98" width="21.93" height="73.71" transform="translate(-241.24 247.66) rotate(-72.63)"/><polygon class="cls-19" points="77.22 343.67 98.12 277.12 27.78 255.12 0 343.67 77.22 343.67"/><polygon class="cls-19" points="389.36 343.67 347.18 209.21 291.13 237.49 323.5 343.67 389.36 343.67"/><path class="cls-1" d="M280.22,149.67s18.18-11.9,34.15,3.58S343,241.7,343,241.7l-25.9,28.55s-8.32-14.84-15.95-30c-4.8-9.54-17.67-22.79-19-39.24s-9.08-21.62,3-31.83c4.33-3.67,8.68,5,8.13,1.83C292.54,166.61,285.63,157.19,280.22,149.67Z" transform="translate(-17.92 -40.18)"/><path class="cls-2" d="M273.76,189.7c3.66-6.06,1.07-9.86.62-11.16l-5.62-12.14a7.5,7.5,0,0,0-9.95-3.67l-1.54.71a7.49,7.49,0,0,0-3.67,9.94l10.62,23.3S271.63,193.22,273.76,189.7Z" transform="translate(-17.92 -40.18)"/><path class="cls-2" d="M256.81,178.49a7.48,7.48,0,0,0,10.59.36l13.85-12.94a7.5,7.5,0,0,0,.35-10.6l-1.16-1.23a7.48,7.48,0,0,0-10.59-.36L256,166.66a7.5,7.5,0,0,0-.36,10.6Z" transform="translate(-17.92 -40.18)"/><path class="cls-2" d="M268.34,157.3a7.51,7.51,0,0,0,2.93,10.19l25.85,14.28a7.5,7.5,0,0,0,10.19-2.93l.82-1.49a7.49,7.49,0,0,0-2.93-10.18l-25.85-14.29a7.51,7.51,0,0,0-10.19,2.93Z" transform="translate(-17.92 -40.18)"/><path class="cls-1" d="M251.63,188.09c4.57-2.13,6.79-4.34,7.51-10.71l1.57-18.18a8,8,0,0,0-7.24-8.65l-1.79-.16a8,8,0,0,0-8.65,7.24l-2.8,31.06S247.05,190.23,251.63,188.09Z" transform="translate(-17.92 -40.18)"/><path class="cls-1" d="M244.92,164.15a8.71,8.71,0,0,0,11.67,4l19.75-9.75a8.71,8.71,0,0,0,4-11.67l-.87-1.76a8.71,8.71,0,0,0-11.67-4L248,150.72a8.7,8.7,0,0,0-3.95,11.66Z" transform="translate(-17.92 -40.18)"/><path class="cls-1" d="M266.17,147.61a8.7,8.7,0,0,0,3.41,11.84l30.72,17.43a8.71,8.71,0,0,0,11.84-3.4l.95-1.73a8.7,8.7,0,0,0-3.4-11.84L279,142.48a8.72,8.72,0,0,0-11.85,3.41Z" transform="translate(-17.92 -40.18)"/><path class="cls-3" d="M220.86,162.73c5,2.55,10.61,2.33,14.41-1l14.64-12.85a9.15,9.15,0,0,0,.84-12.91l-1.37-1.56a9.16,9.16,0,0,0-12.92-.85L211.8,154.92S215.85,160.17,220.86,162.73Z" transform="translate(-17.92 -40.18)"/><path class="cls-3" d="M234.14,144.64a9.16,9.16,0,0,0,11,6.78L267.68,146a9.15,9.15,0,0,0,6.78-11l-.48-2a9.17,9.17,0,0,0-11-6.78l-22.51,5.37a9.15,9.15,0,0,0-6.78,11Z" transform="translate(-17.92 -40.18)"/><path class="cls-3" d="M256.43,133.08a9.17,9.17,0,0,0,4.34,12.21l42.16,19.3a9.15,9.15,0,0,0,12.2-4.33l.89-1.87a9.16,9.16,0,0,0-4.33-12.2l-42.17-19.31a9.16,9.16,0,0,0-12.2,4.34Z" transform="translate(-17.92 -40.18)"/><path class="cls-4" d="M251.28,166c2.92,10.34,9.82,11.43,11.72,12.26l19.26,6.37a11.37,11.37,0,0,0,14.37-7.21l.81-2.44a11.36,11.36,0,0,0-7.2-14.36l-36.8-12.4S249.59,160,251.28,166Z" transform="translate(-17.92 -40.18)"/><path class="cls-4" d="M276.79,165c-4.47,4.42-2.93,13.8,1.48,18.26,0,0,8.56,4.57,9.17,23.57.32,9.91,6.45,21.85,13,29.46,4.26,5,9.49-31.65,12.56-34.68l1.82-1.81a11.36,11.36,0,0,0,.1-16.07l-20.19-20.44a11.38,11.38,0,0,0-16.08-.09Z" transform="translate(-17.92 -40.18)"/><path class="cls-4" d="M291.65,145.6s15.29-19.56,31.31.6c13.85,17.4,29.1,94,29.1,94l-34.92,30s-8.23-17.14-15.86-32.29c-4.79-9.53-13.86-15.1-14.08-36.14,0,0,5.28-13.6,11-18.59,4.28-3.73,18.55,5.32,18,2.19C315.46,181,297.06,153.12,291.65,145.6Z" transform="translate(-17.92 -40.18)"/><path class="cls-4" d="M255.05,75.8l67.25,69.59-20.41,15.38c-.59-1.19-6.83-10.3-16.77-21.74-16.43-18.89-23.37-26.43-33.88-36.65C237.41,88.89,255.05,75.8,255.05,75.8Z" transform="translate(-17.92 -40.18)"/><rect class="cls-12" x="301.48" y="245.85" width="62.78" height="18.68" transform="translate(-97.2 137.16) rotate(-26.78)"/></svg>